<?xml version="1.0" encoding="UTF-8"?>
<svg xmlns="http://www.w3.org/2000/svg" version="1.1" width="768" height="406" style="background-color:transparent;">
  <path d="M0 0 C253.44 0 506.88 0 768 0 C768 133.98 768 267.96 768 406 C514.56 406 261.12 406 0 406 C0 272.02 0 138.04 0 0 Z " fill="#FAAD27" transform="translate(0,0)"/>
  <path d="M0 0 C9.97752768 8.46668766 14.21169198 18.78385962 18.10546875 31.0234375 C18.53666016 32.36341797 18.53666016 32.36341797 18.9765625 33.73046875 C25.75673996 56.60039376 27.46425946 81.2127649 17.48046875 103.3359375 C10.39137176 116.37987596 -0.49191896 124.99576933 -14.56640625 129.515625 C-33.13672062 133.56619693 -56.56566455 132.85700407 -73.07421875 122.6796875 C-85.92311387 113.56424492 -91.30258842 100.18614363 -93.89453125 85.0234375 C-94.27638455 80.57469926 -94.32558446 76.17393251 -94.26953125 71.7109375 C-94.25937988 70.53031738 -94.24922852 69.34969727 -94.23876953 68.13330078 C-93.80439904 43.58968433 -86.57818873 21.49799768 -68.89453125 4.0234375 C-50.76815053 -12.58162198 -20.47216854 -13.97964546 0 0 Z " fill="#391602" transform="translate(567.89453125,104.9765625)"/>
  <path d="M0 0 C12.90316051 10.915118 19.89001742 27.4109364 22.19921875 43.98046875 C22.2290834 45.54678054 22.23718978 47.11361211 22.22705078 48.68017578 C22.22303253 49.48665558 22.21901428 50.29313538 22.21487427 51.12405396 C22.20712479 52.04297928 22.20712479 52.04297928 22.19921875 52.98046875 C21.10971924 53.26237061 20.02021973 53.54427246 18.89770508 53.8347168 C9.66361201 56.23754495 0.45798051 58.72653387 -8.7265625 61.3125 C-9.73894989 61.59664764 -10.75133728 61.88079529 -11.79440308 62.17355347 C-15.96792361 63.34505716 -20.14126365 64.51699856 -24.3112793 65.70092773 C-27.40609353 66.57854745 -30.50352203 67.44634878 -33.6015625 68.3125 C-34.53905838 68.58117386 -35.47655426 68.84984772 -36.44245911 69.12666321 C-41.01241571 70.39562884 -45.00613625 71.31887348 -49.80078125 70.98046875 C-47.57144831 77.98694372 -45.23950543 83.08728669 -38.80078125 86.98046875 C-31.93126491 89.77916059 -25.00364842 90.09068134 -18.05078125 87.48046875 C-12.6816811 84.8568247 -10.03276951 80.46009856 -8.07641602 74.93457031 C-6.80078125 72.98046875 -6.80078125 72.98046875 -4.40576172 72.15917969 C-3.41979004 72.01254883 -2.43381836 71.86591797 -1.41796875 71.71484375 C-0.33257812 71.54726562 0.7528125 71.3796875 1.87109375 71.20703125 C3.010625 71.04976563 4.15015625 70.8925 5.32421875 70.73046875 C6.44054687 70.55773437 7.556875 70.385 8.70703125 70.20703125 C14.59746278 69.33180204 20.24626793 68.77670026 26.19921875 68.98046875 C21.89774243 86.74591567 14.44189435 104.9167444 -1.67578125 114.91796875 C-14.97905966 122.11073004 -29.6050511 121.20130846 -43.80078125 116.98046875 C-55.625375 113.1106017 -61.91513554 108.09291923 -67.80078125 96.98046875 C-73.0819532 85.18803821 -74.1818925 73.73285428 -74.11328125 60.91796875 C-74.11179077 60.23271118 -74.11030029 59.54745361 -74.10876465 58.84143066 C-74.03457309 39.8782898 -72.06278492 19.51824627 -58.80078125 4.75390625 C-43.63590428 -9.70688715 -17.22587541 -12.42088924 0 0 Z " fill="#3A1602" transform="translate(254.80078125,107.01953125)"/>
  <path d="M0 0 C10.5102485 7.75535957 13.44903327 21.10181681 15.7734375 33.30859375 C15.96808594 34.31277344 16.16273438 35.31695312 16.36328125 36.3515625 C20.90365141 62.50011765 18.98903514 89.9566354 17.7734375 116.30859375 C10.53912151 117.18930172 3.4316004 117.43429877 -3.8515625 117.37109375 C-4.85574219 117.36658203 -5.85992187 117.36207031 -6.89453125 117.35742188 C-9.33860721 117.34578342 -11.7825507 117.32943615 -14.2265625 117.30859375 C-14.32106378 112.48902861 -14.31510325 108.0282522 -13.2265625 103.30859375 C-12.16108172 93.81134531 -12.07151893 84.23031662 -11.9765625 74.68359375 C-11.94453735 73.00499268 -11.94453735 73.00499268 -11.91186523 71.29248047 C-11.86955286 60.78208757 -13.04127618 50.08770982 -19.2265625 41.30859375 C-22.44146368 39.70114316 -24.6566696 39.90554133 -28.2265625 40.30859375 C-31.44499795 41.78698077 -33.67404562 43.8819032 -36.2265625 46.30859375 C-37.38200562 47.35563477 -37.38200562 47.35563477 -38.56079102 48.42382812 C-48.40537713 59.55825385 -46.47022708 74.49271739 -46.30810547 88.47851562 C-46.27616405 92.07233461 -46.29522325 95.66588868 -46.31054688 99.25976562 C-46.33681755 106.27807691 -46.27976001 113.28865028 -46.2265625 120.30859375 C-55.7965625 120.30859375 -65.3665625 120.30859375 -75.2265625 120.30859375 C-75.27554687 118.29507813 -75.32453125 116.2815625 -75.375 114.20703125 C-75.77003432 98.76637073 -76.34215519 83.35417498 -77.2265625 67.93359375 C-78.43954887 46.73925145 -78.85559868 25.53194663 -79.2265625 4.30859375 C-76.08117555 3.82646739 -72.93517654 3.3484505 -69.7890625 2.87109375 C-68.91056641 2.73638672 -68.03207031 2.60167969 -67.12695312 2.46289062 C-61.50291161 1.61202088 -55.88374243 0.90136031 -50.2265625 0.30859375 C-49.5665625 4.26859375 -48.9065625 8.22859375 -48.2265625 12.30859375 C-47.28296875 11.71691406 -46.339375 11.12523438 -45.3671875 10.515625 C-14.52229286 -8.56518906 -14.52229286 -8.56518906 0 0 Z " fill="#3A1602" transform="translate(449.2265625,106.69140625)"/>
  <path d="M0 0 C9.24 0 18.48 0 28 0 C29.71674007 22.12281348 31.30826363 44.24793039 32.68365479 66.39474487 C33.35197831 77.146552 34.04710215 87.89442097 34.85546875 98.63671875 C34.92553131 99.57041794 34.99559387 100.50411713 35.06777954 101.46611023 C35.3995737 105.86792718 35.73801584 110.26910699 36.0859375 114.66967773 C36.76768511 123.47405194 37.1855382 132.16288432 37 141 C33.73113962 141.51347647 30.45968231 142.00817571 27.1875 142.5 C26.27806641 142.64308594 25.36863281 142.78617188 24.43164062 142.93359375 C23.06362305 143.13662109 23.06362305 143.13662109 21.66796875 143.34375 C20.84578857 143.46943359 20.0236084 143.59511719 19.17651367 143.72460938 C16.19177565 143.98337384 13.2957003 144.02693308 10.3014679 144.01721191 C8.81305625 144.01348446 8.81305625 144.01348446 7.29457569 144.0096817 C6.15876072 144.00488926 6.15876072 144.00488926 5 144 C4.34579633 126.70136236 3.69374981 109.40264493 3.04424286 92.10383034 C2.74258864 84.07097191 2.44023933 76.03814078 2.13623047 68.00537109 C1.87113417 61.00073356 1.60736569 53.99604747 1.34516478 46.99130094 C1.20639823 43.28534823 1.06698509 39.57942249 0.92597961 35.87355423 C0.76826142 31.72778989 0.61350891 27.58191977 0.45898438 23.43603516 C0.41223068 22.21898895 0.36547699 21.00194275 0.31730652 19.74801636 C0.27523575 18.60677307 0.23316498 17.46552979 0.18981934 16.28970337 C0.15294762 15.31075922 0.1160759 14.33181507 0.07808685 13.32320595 C-0.02623991 8.88328656 0 4.44114493 0 0 Z " fill="#391602" transform="translate(285,81)"/>
  <path d="M0 0 C253.44 0 506.88 0 768 0 C768 0.66 768 1.32 768 2 C515.22 2 262.44 2 2 2 C2 134.99 2 267.98 2 405 C254.78 405 507.56 405 768 405 C768 405.33 768 405.66 768 406 C514.56 406 261.12 406 0 406 C0 272.02 0 138.04 0 0 Z " fill="#0F0B0B" transform="translate(0,0)"/>
  <path d="M0 0 C-0.41767916 21.69724379 -1.09412658 43.2890469 -2.77246094 64.9296875 C-3.11518081 69.55419936 -3.37846299 74.18199324 -3.625 78.8125 C-3.66496094 79.56055908 -3.70492188 80.30861816 -3.74609375 81.0793457 C-3.83246886 82.71947311 -3.91655875 84.35972072 -4 86 C-8.04095043 86.50590367 -12.08286274 87.00367562 -16.125 87.5 C-17.26710938 87.64308594 -18.40921875 87.78617187 -19.5859375 87.93359375 C-20.69453125 88.06894531 -21.803125 88.20429688 -22.9453125 88.34375 C-24.46922607 88.53227539 -24.46922607 88.53227539 -26.02392578 88.72460938 C-29.0340821 89.00315378 -31.97883394 89.04726727 -35 89 C-34.9292627 88.08645752 -34.85852539 87.17291504 -34.78564453 86.23168945 C-34.04632969 75.77148892 -33.84476353 65.36470705 -33.86962891 54.88012695 C-33.87502836 52.17328383 -33.86962559 49.46660402 -33.86328125 46.75976562 C-33.86053606 38.89993776 -33.91953241 31.14125897 -34.77734375 23.3190918 C-35.14554332 19.48408336 -35.10737441 15.66134324 -35.0625 11.8125 C-35.05798828 11.05130859 -35.05347656 10.29011719 -35.04882812 9.50585938 C-35.03728522 7.67053705 -35.01936378 5.83525648 -35 4 C-32.28645833 3.66080729 -29.57291667 3.32161458 -26.859375 2.98242188 C-25.75078125 2.84384766 -24.6421875 2.70527344 -23.5 2.5625 C-17.03125 1.75390625 -17.03125 1.75390625 -13.8984375 1.36376953 C-12.11148311 1.13949712 -10.32492594 0.91199927 -8.5390625 0.67919922 C-5.66550391 0.30618921 -2.90173297 0 0 0 Z " fill="#FEFDFA" transform="translate(365,144)"/>
  <path d="M0 0 C8.36267789 3.67548018 14.23798399 9.70392629 18.05078125 17.99609375 C20.62919297 25.36462147 20.9378041 33.9545238 17.71484375 41.18359375 C12.7544194 49.70620203 6.08969033 57.00395739 -3.44921875 60.18359375 C-8.81192939 60.81450088 -12.10761807 59.90906644 -16.4609375 56.93359375 C-20.26632899 53.58425114 -22.85506477 49.50032088 -25.44921875 45.18359375 C-26.08859375 44.13171875 -26.72796875 43.07984375 -27.38671875 41.99609375 C-29.71128628 33.65499849 -29.95154058 24.07986399 -25.77734375 16.3046875 C-25.3390625 15.60472656 -24.90078125 14.90476563 -24.44921875 14.18359375 C-23.9284375 13.32894531 -23.40765625 12.47429687 -22.87109375 11.59375 C-17.12232986 2.77638918 -11.11580861 -3.70526954 0 0 Z " fill="#F8AC27" transform="translate(538.44921875,139.81640625)"/>
  <path d="M0 0 C6.26857778 3.18927641 8.55478847 6.24094681 10.8125 12.8125 C14.0171012 23.10925138 15.57944769 33.81632602 10.5625 43.8125 C7.22147931 49.01639284 3.57821966 52.03671296 -2.4375 53.8125 C-5.30707986 54.20729657 -8.10720818 54.23378467 -11 54.1875 C-11.72896484 54.19910156 -12.45792969 54.21070313 -13.20898438 54.22265625 C-18.82663445 54.19231791 -22.9396602 53.01679025 -27.265625 49.19921875 C-27.73484375 48.63847656 -28.2040625 48.07773437 -28.6875 47.5 C-29.16703125 46.94699219 -29.6465625 46.39398438 -30.140625 45.82421875 C-34.93780594 38.38280856 -34.19478043 28.80448144 -33.125 20.33984375 C-31.12630929 11.36358103 -26.91952572 5.11290836 -19.4375 -0.1875 C-13.37010877 -2.20996374 -6.06878849 -2.04995336 0 0 Z " fill="#3C1803" transform="translate(335.4375,242.1875)"/>
  <path d="M0 0 C6.76356087 3.38178043 8.98283401 7.85563829 11.5 14.75 C14.49588185 24.22573865 14.78616399 33.4623068 10.625 42.59375 C8.10015181 47.43304236 5.30274038 50.68282224 0.23828125 53.01953125 C-7.19607588 55.00273351 -17.08600873 55.31246955 -24.25 52.25 C-28.20571156 49.74323448 -30.72443813 46.03268572 -32.5 41.75 C-34.79886938 31.11955944 -34.89588239 19.02594326 -29.140625 9.5 C-21.86582152 -0.69972447 -12.19703927 -4.22646935 0 0 Z " fill="#3C1803" transform="translate(384.5,242.25)"/>
  <path d="M0 0 C11.6891592 3.00321073 23.19112066 6.25244585 30 17 C33.06912786 24.47265915 32.7308509 31.52474919 29.96484375 38.96875 C25.63869802 48.07642523 12.97025448 53.67659424 4 57 C3.01 57 2.02 57 1 57 C-0.24834271 38.00735727 -0.10159095 19.0225153 0 0 Z " fill="#3E1903" transform="translate(400,235)"/>
  <path d="M0 0 C0.84175781 0.00515625 1.68351562 0.0103125 2.55078125 0.015625 C6.64902968 0.06725648 10.50456352 0.23476614 14.5 1.25 C13.90075776 5.44469571 12.92500059 9.25999834 11.5 13.25 C10.695625 13.085 9.89125 12.92 9.0625 12.75 C4.84112648 12.15752652 0.75335455 12.16493291 -3.5 12.25 C-3.5 13.57 -3.5 14.89 -3.5 16.25 C0.63024871 19.72810418 5.15725041 21.37937648 10.23046875 23.125 C12.9479974 24.472071 14.01684739 25.61433389 15.5 28.25 C16.40054511 33.1664895 16.04928086 37.19067262 13.75 41.625 C8.3 47.98333333 8.3 47.98333333 4.5 49.25 C-4.59562989 49.78685897 -12.9258778 49.71262627 -21.5 46.25 C-22.63637609 42.22622806 -22.4020261 40.17229542 -20.5625 36.4375 C-20.18222656 35.64730469 -19.80195313 34.85710937 -19.41015625 34.04296875 C-19.10980469 33.45128906 -18.80945313 32.85960937 -18.5 32.25 C-15.6768974 33.36213133 -12.96781053 34.51609473 -10.25 35.875 C-5.79837711 37.50726173 -2.17516732 37.53623473 2.5 37.25 C2.83 35.6 3.16 33.95 3.5 32.25 C2.77554687 32.07984375 2.05109375 31.9096875 1.3046875 31.734375 C-7.55422495 29.51374095 -12.96454173 26.52517373 -18.5 19.25 C-20.23982727 15.77034546 -20.08558571 12.04643771 -19.5 8.25 C-17.3125 5.375 -17.3125 5.375 -14.5 3.25 C-13.81292969 2.71632812 -13.12585938 2.18265625 -12.41796875 1.6328125 C-8.25482452 -0.34008316 -4.54394869 -0.11133718 0 0 Z " fill="#3E1903" transform="translate(456.5,244.75)"/>
  <path d="M0 0 C5.63700021 2.06480649 9.91160306 4.89379708 12.6875 10.3125 C14.35920011 15.08764339 14.56978155 19.17437522 13 24 C10.22873873 29.56942798 6.85261109 34.55254445 1 37 C-4.93189696 37.71970653 -10.10483708 37.89770875 -15.5625 35.3125 C-23.68491407 27.60661999 -23.68491407 27.60661999 -24.30078125 22.51171875 C-24.34176204 12.63534735 -24.34176204 12.63534735 -21 8 C-14.41844987 1.54292363 -9.40763825 -1.36324784 0 0 Z " fill="#FDFDF8" transform="translate(352,95)"/>
  <path d="M0 0 C4.32271989 2.00154108 7.34367078 4.01550617 10 8 C4.52473469 13.90302041 4.52473469 13.90302041 0.7890625 14.140625 C-1.15549906 13.84578173 -3.08082947 13.43015891 -5 13 C-6.96822886 14.96822886 -6.66248381 18.34808709 -7 21 C-3.7 20.67 -0.4 20.34 3 20 C4.83691257 23.78187881 5.15837626 25.94568308 4 30 C1.03 30.66 -1.94 31.32 -5 32 C-4.6390625 33.45792969 -4.278125 34.91585937 -3.90625 36.41796875 C-3.43720024 38.34107275 -2.96846679 40.26425391 -2.5 42.1875 C-2.26152344 43.14720703 -2.02304687 44.10691406 -1.77734375 45.09570312 C-1.55175781 46.02705078 -1.32617188 46.95839844 -1.09375 47.91796875 C-0.77954102 49.19837036 -0.77954102 49.19837036 -0.45898438 50.50463867 C0.01093734 53.05946307 0.08117627 55.40844759 0 58 C-1.43429001 58.67354499 -2.87257057 59.33859701 -4.3125 60 C-5.11300781 60.37125 -5.91351563 60.7425 -6.73828125 61.125 C-9 62 -9 62 -12 62 C-14.93684999 53.18945003 -14.12041001 43.16453927 -14 34 C-14.9075 34.33 -15.815 34.66 -16.75 35 C-20 36 -20 36 -24 36 C-25.31626692 32.38026598 -26 29.90432869 -26 26 C-22.7 25.34 -19.4 24.68 -16 24 C-16.33 23.34 -16.66 22.68 -17 22 C-17.72655268 15.26541557 -17.00024774 8.85078526 -12.74609375 3.390625 C-8.97290393 -0.26947193 -5.00217662 -1.18521722 0 0 Z " fill="#3F1A04" transform="translate(290,237)"/>
  <path d="M0 0 C3.78819477 2.63716636 7.11896887 5.83567451 10.03125 9.4140625 C10.03125 10.0740625 10.03125 10.7340625 10.03125 11.4140625 C5.15742723 12.68079843 0.28273619 13.94411782 -4.59277344 15.2043457 C-6.24958923 15.63310582 -7.90616834 16.06278163 -9.5625 16.4934082 C-11.94989657 17.11393045 -14.33813841 17.73110243 -16.7265625 18.34765625 C-17.46117706 18.53935898 -18.19579163 18.73106171 -18.95266724 18.92857361 C-22.94050856 19.95425202 -26.89051252 20.8054122 -30.96875 21.4140625 C-31.55839203 15.66505273 -29.97416869 11.23612703 -26.96875 6.4140625 C-19.42593762 -1.90035282 -10.39169166 -5.73192516 0 0 Z " fill="#F5AC27" transform="translate(238.96875,132.5859375)"/>
  <path d="M0 0 C0.66 0 1.32 0 2 0 C2.95645264 5.035665 3.32243657 10.00363269 3.61328125 15.109375 C3.7258953 16.97462019 3.83869714 18.83985404 3.95166016 20.70507812 C4.01025208 21.68935791 4.06884399 22.6736377 4.12921143 23.68774414 C5.2636622 42.64134535 6.60570654 61.57346578 8.125 80.5 C8.25426376 82.12488342 8.25426376 82.12488342 8.38613892 83.78259277 C8.63214436 86.86572005 8.88166081 89.94853807 9.1328125 93.03125 C9.20562943 93.93969666 9.27844635 94.84814331 9.35346985 95.78411865 C9.65636421 99.44171911 10.0072621 103.05005837 10.53442383 106.68383789 C11.02111177 110.15037289 11.20757701 113.52926111 11.31640625 117.02734375 C11.35830078 118.31318359 11.40019531 119.59902344 11.44335938 120.92382812 C11.483157 122.26171625 11.52286951 123.59960691 11.5625 124.9375 C11.60576654 126.30274562 11.64938321 127.66798018 11.69335938 129.03320312 C11.79901153 132.35537652 11.90111395 135.67761946 12 139 C11.01 139.33 10.02 139.66 9 140 C6.91797665 112.58431999 4.88931308 85.16881074 3.1918335 57.72631836 C2.44465997 45.64730766 1.60009729 33.5902419 0.5625 21.53222656 C-0.03324797 14.33883109 -0.23249281 7.22019326 0 0 Z " fill="#BB881E" transform="translate(313,82)"/>
  <path d="M0 0 C3.8774584 3.38246371 4.81497268 4.8343279 5.625 9.9375 C5.342992 14.52012999 3.11715259 17.74115866 0 21 C-3.26382646 22.63191323 -5.40342633 22.54862988 -9 22 C-12.14413575 18.84804302 -13.72525455 15.31877818 -14.625 11 C-13.7372444 6.7387731 -11.6825076 3.40597177 -9 0 C-5.73616149 -1.63191925 -3.46807101 -0.88171297 0 0 Z " fill="#F2A927" transform="translate(330,259)"/>
  <path d="M0 0 C3.15387325 3.23686991 4.84694873 5.69906424 5.375 10.1875 C4.90903136 14.92484786 3.20500409 17.5619047 0 21 C-3.26382646 22.63191323 -5.40342633 22.54862988 -9 22 C-12.14413575 18.84804302 -13.72525455 15.31877818 -14.625 11 C-13.7372444 6.7387731 -11.6825076 3.40597177 -9 0 C-5.77839187 -1.61080407 -3.42436421 -0.82657067 0 0 Z " fill="#F2A927" transform="translate(379,259)"/>
  <path d="M0 0 C6.7846808 2.26549342 10.8502246 7.3292136 14.40234375 13.39453125 C17.79627476 20.8708419 18.43594054 29.22809471 16 37.125 C12.11456768 45.83998839 5.33775208 52.54333173 -3 57 C-6.52059568 58.17353189 -9.306493 58.20146402 -13 58 C-13.66 57.34 -14.32 56.68 -15 56 C-14.34773437 55.90203125 -13.69546875 55.8040625 -13.0234375 55.703125 C-1.93133184 53.80536061 3.81498881 47.93748704 10.3984375 39.12890625 C14.1243307 32.98514619 13.90469277 25.94117732 13 19 C10.5203455 11.41876124 5.73609616 5.43419636 0 0 Z " fill="#B7871E" transform="translate(541,142)"/>
  <path d="M0 0 C4.00660357 0.55647272 6.07665236 2.55838114 9 5.25 C10.2684375 6.40242188 10.2684375 6.40242188 11.5625 7.578125 C16.09053458 12.07713372 18.85778727 16.35919964 21.125 22.3125 C21.38506836 22.9818457 21.64513672 23.65119141 21.91308594 24.34082031 C23.64790808 28.88229738 25.04782101 33.23910507 26 38 C26.18304688 38.90621094 26.36609375 39.81242187 26.5546875 40.74609375 C27.4253422 45.23652518 28.11572036 49.41251431 28 54 C27.01 54 26.02 54 25 54 C24.82984375 52.99582031 24.6596875 51.99164063 24.484375 50.95703125 C21.38242777 33.19729113 17.16912329 15.22856945 3 3 C1.9920863 2.00797683 0.98925649 1.01062931 0 0 Z " fill="#BE8A1F" transform="translate(252,105)"/>
  <path d="M0 0 C1.65 0 3.3 0 5 0 C5.23074219 0.59167969 5.46148437 1.18335938 5.69921875 1.79296875 C8.07692139 7.55396369 10.39000028 12.28709197 16.296875 15.08984375 C19.19908049 16.06703144 21.76290393 16.40454727 24.8125 16.625 C25.78832031 16.69976562 26.76414063 16.77453125 27.76953125 16.8515625 C28.50558594 16.90054688 29.24164063 16.94953125 30 17 C25.0970671 20.26862193 20.09637307 19.33100627 14.4375 18.4375 C8.57463283 15.98575555 4.36849407 12.18103743 1 6.8125 C0 4 0 4 0 0 Z " fill="#B4841D" transform="translate(205,178)"/>
  <path d="M0 0 C0 0.33 0 0.66 0 1 C-0.556875 1.06316406 -1.11375 1.12632812 -1.6875 1.19140625 C-8.27258534 2.24813447 -13.00379787 4.52911736 -17 10 C-18.28236083 13.41292898 -19.22151797 16.74741212 -20.015625 20.3046875 C-20.50289062 21.63886719 -20.50289062 21.63886719 -21 23 C-23.109375 23.8828125 -23.109375 23.8828125 -25 24 C-25.58964203 18.25099023 -24.00541869 13.82206453 -21 9 C-14.62973203 1.97807623 -9.33360844 -0.31639351 0 0 Z " fill="#B7871E" transform="translate(233,130)"/>
  <path d="M0 0 C5.70212766 2.85106383 5.70212766 2.85106383 8 6 C8.0625 9.5 8.0625 9.5 7 13 C4.5625 15.4375 4.5625 15.4375 2 17 C1.34 17 0.68 17 0 17 C0 11.39 0 5.78 0 0 Z " fill="#DF9D26" transform="translate(412,254)"/>
  <path d="M0 0 C2.64 0 5.28 0 8 0 C5.78307986 14.68435221 0.36601251 27.29663205 -10 38 C-10 34.46505881 -9.26518887 33.63077157 -7.25 30.8125 C-1.93853221 23.03810336 1.08695743 15.13087382 3.94921875 6.1953125 C5 3 5 3 6 1 C4.02 1 2.04 1 0 1 C0 0.67 0 0.34 0 0 Z " fill="#B1801C" transform="translate(275,175)"/>
  <path d="M0 0 C0.33 0 0.66 0 1 0 C1 4.62 1 9.24 1 14 C4.96 14 8.92 14 13 14 C13 14.33 13 14.66 13 15 C8.38 15.33 3.76 15.66 -1 16 C-0.67 10.72 -0.34 5.44 0 0 Z " fill="#FCECB9" transform="translate(331,217)"/>
  <path d="M0 0 C0.66 0.33 1.32 0.66 2 1 C-3.445 7.435 -3.445 7.435 -9 14 C-9 10.02785867 -7.56892582 8.89680688 -5.0625 5.875 C-4.33160156 4.98554688 -3.60070312 4.09609375 -2.84765625 3.1796875 C-1 1 -1 1 0 0 Z " fill="#D99926" transform="translate(416,149)"/>
  <path d="M0 0 C2.64 0 5.28 0 8 0 C7.01 3.63 6.02 7.26 5 11 C4 8 4 8 3.625 4.9375 C3.29141919 1.68988237 3.29141919 1.68988237 0 0 Z " fill="#4C2704" transform="translate(273,176)"/>
  <path d="M0 0 C0.33 1.32 0.66 2.64 1 4 C1.66 4 2.32 4 3 4 C3.1875 6.875 3.1875 6.875 3 10 C2.01 10.66 1.02 11.32 0 12 C0 8.04 0 4.08 0 0 Z " fill="#C28D1E" transform="translate(555,161)"/>
  <path d="M0 0 C2.64 0 5.28 0 8 0 C7.40049704 3.68266103 6.75241109 7.34543185 6 11 C5.67 11 5.34 11 5 11 C4.875 3.25 4.875 3.25 6 1 C4.02 1 2.04 1 0 1 C0 0.67 0 0.34 0 0 Z " fill="#BF8B1E" transform="translate(275,175)"/>
  <path d="M0 0 C0.66 0.33 1.32 0.66 2 1 C-0.64 3.64 -3.28 6.28 -6 9 C-6.66 8.67 -7.32 8.34 -8 8 C-5.58443874 4.80800833 -3.31996462 2.25283313 0 0 Z " fill="#E3A028" transform="translate(525,141)"/>
  <path d="M0 0 C1.78409802 3.06246747 2.22880021 5.22079273 2.125 8.75 C2.10695313 9.54921875 2.08890625 10.3484375 2.0703125 11.171875 C2.04710937 11.77515625 2.02390625 12.3784375 2 13 C-0.53503138 7.92993724 -0.96421295 5.78527771 0 0 Z " fill="#5F3709" transform="translate(275,147)"/>
  <path d="M0 0 C-1.28519565 2.86697492 -2.57129254 4.97607712 -5 7 C-5.66 7 -6.32 7 -7 7 C-3.86206897 0 -3.86206897 0 0 0 Z " fill="#FCF4D4" transform="translate(337,99)"/>
</svg>
