<?xml version="1.0" encoding="UTF-8"?>
<svg version="1.1" xmlns="http://www.w3.org/2000/svg" width="1438" height="1098">
<path d="M0 0 C1.24330078 -0.04350586 1.24330078 -0.04350586 2.51171875 -0.08789062 C8.0354329 -0.14497193 11.10960237 0.65046327 15.5 4.3125 C25.9919041 15.10417279 24.80170917 33.83566909 24.74609566 47.82341671 C24.747579 49.33314974 24.74994046 50.84288211 24.75308865 52.35261258 C24.75917481 56.47454396 24.75292018 60.59637529 24.74453239 64.71829914 C24.73762134 69.21258189 24.74241365 73.70685521 24.74568737 78.20113999 C24.74982293 86.06879382 24.74656769 93.93641732 24.73841095 101.80406761 C24.72631607 113.50288033 24.72574165 125.20167402 24.72749493 136.90049185 C24.73011987 156.58196147 24.72345075 176.26341764 24.71146011 195.94488335 C24.69962064 215.42822778 24.69192712 234.91156662 24.68975449 254.39491463 C24.68961701 255.60693696 24.68947953 256.8189593 24.68933788 258.06770959 C24.6886612 264.2231145 24.68805844 270.37851942 24.68748413 276.53392435 C24.68328481 320.11742799 24.66981427 363.70092431 24.65087891 407.28442383 C24.63250624 449.62166302 24.61834087 491.9589002 24.60986328 534.29614258 C24.6094687 536.25413162 24.6094687 536.25413162 24.60906615 538.251676 C24.60642908 551.36045663 24.60387746 564.46923726 24.60138843 577.57801791 C24.59631619 604.28142794 24.59067369 630.98483784 24.58468628 657.68824768 C24.5844117 658.91599114 24.58413712 660.1437346 24.58385422 661.4086824 C24.56545706 743.37662464 24.53376714 825.34456283 24.5 907.3125 C23.89254944 906.90362045 23.28509888 906.49474091 22.65924072 906.07347107 C21.85677917 905.53545364 21.05431763 904.99743622 20.22753906 904.44311523 C19.4344635 903.91048569 18.64138794 903.37785614 17.82427979 902.8290863 C-16.23880621 880.60301438 -62.48373062 877.24877925 -102.07421875 877.109375 C-103.43437732 877.10234552 -104.7945356 877.09525878 -106.1546936 877.08811951 C-110.49896711 877.06866523 -114.84318735 877.06368135 -119.1875 877.0625 C-119.93153957 877.06205814 -120.67557915 877.06161629 -121.44216537 877.06116104 C-147.23643047 877.05314304 -172.81236797 877.83307729 -198.5 880.3125 C-199.39801331 880.39735657 -200.29602661 880.48221313 -201.22125244 880.56964111 C-296.34569752 889.57346471 -390.53817598 908.17008634 -701.19873047 993.73852539 C-703.2158019 994.4715676 -705.23289174 995.20455914 -707.25 995.9375 C-708.74300629 996.48009964 -708.74300629 996.48009964 -710.26617432 997.03366089 C-728.20866744 1003.54776678 -746.23001179 1009.75885035 -764.39276123 1015.63006592 C-766.48838607 1016.3087388 -768.5824826 1016.99194971 -770.67626953 1017.67626953 C-835.41997175 1038.79923956 -902.08720915 1054.42294303 -968.5 1069.3125 C-970.05790253 1069.66184601 -970.05790253 1069.66184601 -971.64727783 1070.01824951 C-1059.22731922 1089.60309126 -1149.11462536 1102.60765993 -1412.5 1051.3125 C-1413.5 1050.3125 -1413.5 1050.3125 -1413.62467116 1048.02277854 C-1413.62451518 1046.99595809 -1413.6243592 1045.96913764 -1413.6241985 1044.91120142 C-1413.62644579 1043.72925177 -1413.62869308 1042.54730212 -1413.63100848 1041.32953581 C-1413.62838146 1040.01178653 -1413.62575445 1038.69403724 -1413.62304783 1037.33635616 C-1413.62378658 1035.93162316 -1413.62496421 1034.52689033 -1413.62654433 1033.12215802 C-1413.62963385 1029.22651822 -1413.62642137 1025.33090423 -1413.62226619 1021.43526633 C-1413.61884935 1017.21059731 -1413.62119946 1012.98593106 -1413.62284368 1008.76126152 C-1413.62492352 1001.34528153 -1413.62326329 993.92930953 -1413.61920547 986.51333046 C-1413.61318828 975.48591568 -1413.61286801 964.45850597 -1413.61374746 953.43108985 C-1413.61506364 934.88423351 -1413.61171133 916.33738073 -1413.60573006 897.79052544 C-1413.59982003 879.41762716 -1413.59596553 861.04473035 -1413.59487724 842.67183113 C-1413.5948085 841.53093647 -1413.59473976 840.39004181 -1413.59466894 839.21457459 C-1413.59433062 833.42092658 -1413.59402923 827.62727858 -1413.59374207 821.83363057 C-1413.59163972 780.76026117 -1413.58489697 739.6868937 -1413.57543945 698.61352539 C-1413.56626021 658.7027182 -1413.55917406 618.79191155 -1413.55493164 578.88110352 C-1413.55480011 577.65162703 -1413.55466859 576.42215054 -1413.55453308 575.15541718 C-1413.5532146 562.80889867 -1413.55193878 550.46238015 -1413.55069422 538.11586163 C-1413.54815777 512.96290695 -1413.54533652 487.80995231 -1413.54234314 462.65699768 C-1413.54220585 461.50041759 -1413.54206856 460.34383749 -1413.54192711 459.15220952 C-1413.53272107 381.87230554 -1413.51687525 304.59240264 -1413.5 227.3125 C-1409.80178513 225.52005988 -1406.10229341 223.73028434 -1402.40166283 221.94283676 C-1401.14616999 221.33597647 -1399.89101205 220.72842278 -1398.6362133 220.12012863 C-1389.92172568 215.89631452 -1381.23247228 211.87915478 -1372.125 208.5625 C-1370.9275415 208.11970703 -1369.73008301 207.67691406 -1368.49633789 207.22070312 C-1281.01010618 175.33057905 -1186.16189159 164.54150971 -1088.875 159.1875 C-1088.15480682 159.14879791 -1087.43461365 159.11009583 -1086.69259644 159.07022095 C-1081.29638781 158.78503175 -1075.89889918 158.54068662 -1070.5 158.3125 C-1069.52302155 158.27039398 -1068.54604309 158.22828796 -1067.53945923 158.18490601 C-1047.78754857 157.35607097 -1028.04680016 157.11554884 -1008.2805357 156.94806862 C-920.62248763 156.20181846 -832.39221599 154.57508882 -685.75 101.6875 C-612.49247446 68.51966358 -536.69376366 53.76383517 -456.78125 48.65625 C-456.11444214 48.61334839 -455.44763428 48.57044678 -454.76062012 48.52624512 C-440.64529876 47.66690669 -426.51040405 47.16555631 -412.375 46.7890625 C-411.20504832 46.75736875 -411.20504832 46.75736875 -410.01146126 46.72503471 C-393.39357971 46.28093318 -376.77566028 46.100074 -360.1529932 45.94835091 C-329.24242396 45.66356418 -298.35322425 45.37143309 -267.5 43.3125 C-266.03759888 43.21582031 -266.03759888 43.21582031 -264.5456543 43.1171875 C-234.42102221 41.10682408 -204.42009441 38.3698032 -174.5 34.3125 C-173.70601807 34.20548767 -172.91203613 34.09847534 -172.09399414 33.98822021 C-126.91039454 27.8648302 -82.60324441 17.86759469 -38.37866211 6.93823242 C-37.63440885 6.75443213 -36.89015558 6.57063183 -36.12334919 6.38126183 C-32.60639324 5.5122649 -29.09021509 4.64034898 -25.57551575 3.76226807 C-23.71330635 3.2997464 -23.71330635 3.2997464 -21.81347656 2.82788086 C-20.73406799 2.55826035 -19.65465942 2.28863983 -18.5425415 2.010849 C-12.30367768 0.57885397 -6.37413369 0.07434837 0 0 Z " fill="#199F26" transform="translate(1413.5,-0.3125)"/>
</svg>
